<?xml version="1.0" encoding="UTF-8"?>
<svg version="1.1" xmlns="http://www.w3.org/2000/svg" width="512" height="512">
<path d="M0 0 C0.66193359 0.35175293 1.32386719 0.70350586 2.00585938 1.06591797 C24.37944844 12.97530449 46.01717578 29.18403592 62 49 C62.90995815 50.09782048 63.82013593 51.19545894 64.73046875 52.29296875 C73.46345232 62.9203942 81.26573333 74.00076121 88 86 C90.31626098 83.68373902 89.79686266 77.55345541 90.07421875 74.2578125 C90.18830078 73.12859375 90.18830078 73.12859375 90.3046875 71.9765625 C90.3972583 70.94136475 90.3972583 70.94136475 90.49169922 69.88525391 C91.14260616 67.47108322 92.02288087 66.50920286 94 65 C97.5 64.5625 97.5 64.5625 101 65 C103.50192563 67.332495 103.9810337 68.60119512 104.14453125 72.0390625 C104.03496094 73.22242188 103.92539062 74.40578125 103.8125 75.625 C103.75715088 76.27307617 103.70180176 76.92115234 103.64477539 77.58886719 C103.24714391 82.04360713 102.72258106 86.48473613 102.20629883 90.92700195 C100.80200355 103.06312324 100.01472033 112.49379648 105 124 C108.42071287 122.22953355 108.42071287 122.22953355 108.76782227 118.18725586 C108.96467174 116.53138821 109.14643566 114.87368594 109.31640625 113.21484375 C109.41839828 112.32575821 109.52039032 111.43667267 109.62547302 110.52064514 C109.95060654 107.66086544 110.25687172 104.79942346 110.5625 101.9375 C110.77152998 100.06691646 110.98180332 98.19647141 111.19335938 96.32617188 C112.39932604 85.64003562 112.39932604 85.64003562 113.49169922 74.94189453 C113.57185776 74.15843155 113.6520163 73.37496857 113.73460388 72.56776428 C113.8836645 71.11020251 114.02257021 69.65155153 114.14930725 68.19187927 C114.44847537 65.35677645 114.71539589 63.38096424 116.44360352 61.06762695 C118.40893707 59.71948521 119.62906785 59.59805759 122 59.625 C123.0209375 59.61339844 123.0209375 59.61339844 124.0625 59.6015625 C126.71396801 60.14682407 127.43427948 60.77204204 129 63 C129.11436985 65.6200401 129.05207626 67.93911747 128.81640625 70.53125 C128.75981339 71.28120239 128.70322052 72.03115479 128.64491272 72.80383301 C127.898797 82.18565641 126.76961606 91.53058008 125.65405273 100.87402344 C124.13593089 112.90119053 124.13593089 112.90119053 124 125 C125.06645115 126.29633621 125.06645115 126.29633621 127.5625 126.0625 C128.7690625 126.0315625 128.7690625 126.0315625 130 126 C131.6060046 123.12091431 132.32235163 120.78281592 132.65429688 117.51025391 C132.74779419 116.62898834 132.8412915 115.74772278 132.93762207 114.8397522 C133.03039429 113.8948996 133.1231665 112.950047 133.21875 111.9765625 C133.32215698 110.99763031 133.42556396 110.01869812 133.53210449 109.01010132 C133.86210132 105.88245017 134.18210806 102.75390313 134.5 99.625 C134.818238 96.50328257 135.13885901 93.38192079 135.46789551 90.26132202 C135.67246434 88.32092652 135.87090478 86.37987235 136.06237793 84.43814087 C136.55759899 79.73700799 137.10001189 75.38288692 139 71 C141.79870027 69.60064987 143.90498792 69.74734595 147 70 C148.67425537 71.18437195 148.67425537 71.18437195 150 73 C151.2043102 81.5209623 149.56886174 90.7070599 148.609375 99.19921875 C148.46186169 100.5281252 148.31450575 101.85704912 148.16729736 103.18598938 C147.85937117 105.94886272 147.54588454 108.71104054 147.22900391 111.47290039 C146.8267039 114.98785008 146.44423822 118.50465509 146.06658554 122.02232647 C145.76949166 124.75949106 145.45895258 127.49501237 145.14478302 130.23026466 C144.92762679 132.14841302 144.72385292 134.06806153 144.52044678 135.98771667 C143.21772924 146.99734976 140.2578783 155.36405396 132 163 C128.56961052 165.48308528 125.13477624 167.07215261 121 168 C119.24608859 177.61679032 118.11618992 187.26760069 117.07641602 196.98022461 C116.89412562 198.65862521 116.71149887 200.3369893 116.52856445 202.01531982 C116.13780831 205.60483953 115.7489627 209.19455909 115.36151314 212.78443718 C114.74823812 218.46237755 114.12788039 224.1395304 113.50608826 229.81654358 C111.73969349 245.95101461 109.97745567 262.08591854 108.23413086 278.22290039 C107.26922922 287.15391392 106.29574878 296.08394782 105.31255096 305.01296622 C104.79339695 309.73117264 104.27876656 314.44977715 103.77478218 319.16963005 C103.30161464 323.60070496 102.81729474 328.03041679 102.32436371 332.45933533 C102.14559891 334.08385308 101.97098337 335.70883363 101.80083275 337.3342762 C101.56791813 339.55346517 101.32013743 341.77050952 101.06861877 343.98765564 C100.8664945 345.84888266 100.8664945 345.84888266 100.6602869 347.74771023 C99.66225986 352.6635629 98.1733656 355.21775627 94 358 C89.28813675 358.53198456 87.10633888 358.64536434 83 356.25 C78.12509979 348.32828715 81.40573366 336.02542586 82.5 327.1875 C83.78012116 317.12299329 83.78012116 317.12299329 84 307 C83.53851563 307.71542969 83.07703125 308.43085938 82.6015625 309.16796875 C74.39056214 321.71165112 65.38200895 333.16787568 55 344 C54.44715332 344.58539551 53.89430664 345.17079102 53.32470703 345.77392578 C20.7058259 380.18634716 -22.50316561 401.09410072 -69 409 C-69.75845215 409.13132324 -70.5169043 409.26264648 -71.29833984 409.39794922 C-125.25464025 418.26015659 -183.90357324 403.59827955 -228.19921875 372.05078125 C-245.2958908 359.57985871 -260.92606182 345.70422495 -274 329 C-274.69738281 328.11183594 -275.39476562 327.22367187 -276.11328125 326.30859375 C-277.7505406 324.21198308 -279.3798496 322.10984216 -281 320 C-280.93941406 320.77601563 -280.87882812 321.55203125 -280.81640625 322.3515625 C-280.63948955 324.63242704 -280.46803156 326.91371878 -280.30078125 329.1953125 C-280.10005131 331.7344159 -279.86817669 334.27124653 -279.60546875 336.8046875 C-279.48816406 338.02414062 -279.37085938 339.24359375 -279.25 340.5 C-279.13140625 341.6240625 -279.0128125 342.748125 -278.890625 343.90625 C-279.01792462 347.5070106 -279.85992467 349.14320133 -282 352 C-285.07919947 354.56599956 -286.51778879 355.00845985 -290.5625 354.9375 C-294.42302623 353.88462921 -295.73624401 353.26986976 -298 350 C-300.20085678 342.95954293 -300.83967411 335.70241764 -301.63370132 328.39718437 C-301.88904109 326.06418405 -302.15410622 323.73247455 -302.42208862 321.40089417 C-303.18360723 314.77403662 -303.9414717 308.14693327 -304.66113281 301.51538086 C-306.82003121 281.69667481 -309.79068027 262.7240278 -315.23217773 243.52246094 C-317.68732634 234.81541259 -319.07953769 225.98860594 -320 217 C-320.09498779 216.14696289 -320.18997559 215.29392578 -320.2878418 214.41503906 C-321.26673378 204.54320534 -321.0452077 194.68340763 -320.90405273 184.77783203 C-320.4245709 169.71011246 -320.4245709 169.71011246 -323 155 C-325.27386973 152.69529814 -327.40835336 151.24053074 -330.20703125 149.62109375 C-339.82758254 144.0371374 -347.28104415 135.28389176 -351.16796875 124.87109375 C-352.26514882 119.76637333 -352.32939263 114.89380805 -352.3125 109.6875 C-352.32861328 108.70587891 -352.34472656 107.72425781 -352.36132812 106.71289062 C-352.36840757 96.01585326 -349.8357469 86.30260665 -342.4375 78.3125 C-334.13607109 70.62599175 -325.12319345 68.90956753 -314 69 C-304.30425736 69.68940984 -297.57058136 75.23413912 -291 82 C-290.42894531 81.030625 -289.85789062 80.06125 -289.26953125 79.0625 C-280.19421366 63.94648959 -269.12631036 50.75420992 -257 38 C-256.38898438 37.34773438 -255.77796875 36.69546875 -255.1484375 36.0234375 C-192.97505547 -28.50722916 -84.47021573 -43.77478374 0 0 Z M85 303 C86 305 86 305 86 305 Z " fill="#F0F6F6" transform="translate(357,63)"/>
<path d="M0 0 C0 74.58 0 149.16 0 226 C-55.77 226 -111.54 226 -169 226 C-172.68213489 210.04408213 -174.44186819 195.43935114 -174.4375 179.1875 C-174.4385675 178.3374942 -174.43963501 177.4874884 -174.44073486 176.61172485 C-174.40214317 155.20762025 -170.89649164 134.96644918 -163 115 C-162.56929199 113.90365234 -162.56929199 113.90365234 -162.12988281 112.78515625 C-153.78096642 91.95348162 -141.44737746 73.25553622 -126 57 C-125.48228027 56.44441406 -124.96456055 55.88882813 -124.43115234 55.31640625 C-92.8233588 21.55786706 -46.51191167 0 0 0 Z " fill="#8BC782" transform="translate(249,76)"/>
<path d="M0 0 C20.03089598 0 20.03089598 0 27.4375 1.4375 C28.79367432 1.69539307 28.79367432 1.69539307 30.17724609 1.95849609 C64.68701436 9.07155453 94.45389293 26.17835542 120 50 C120.79019531 50.72445312 121.58039063 51.44890625 122.39453125 52.1953125 C139.20605458 68.21922003 151.94267918 88.73082974 161 110 C161.43699219 110.98226562 161.87398437 111.96453125 162.32421875 112.9765625 C170.2269817 131.87339 174 152.60153031 174 173 C116.58 173 59.16 173 0 173 C0 115.91 0 58.82 0 0 Z " fill="#F1D281" transform="translate(260,77)"/>
<path d="M0 0 C57.42 0 114.84 0 174 0 C174 45.96422458 153.20045265 88.22329863 122 121 C121.30777344 121.75667969 120.61554688 122.51335937 119.90234375 123.29296875 C108.81842088 135.0175808 95.07864624 144.25860191 81 152 C80.39961914 152.33837891 79.79923828 152.67675781 79.18066406 153.02539062 C54.874277 166.59959291 27.61282211 173 0 173 C0 115.91 0 58.82 0 0 Z " fill="#F5AB43" transform="translate(260,262)"/>
<path d="M0 0 C54.45 0 108.9 0 165 0 C165 40.59 165 81.18 165 123 C146.2016474 123 127.6848387 119.31628659 110 113 C109.28086426 112.74379883 108.56172852 112.48759766 107.82080078 112.22363281 C85.86104492 104.19706761 66.18472654 91.86112907 49.1015625 75.94921875 C47.22072333 74.20472294 45.29381969 72.56532432 43.3125 70.9375 C23.25532918 53.85373882 7.8174464 26.85933922 0 2 C0 1.34 0 0.68 0 0 Z " fill="#F7C9D5" transform="translate(84,313)"/>
<path d="M0 0 C6.49593641 5.03799557 7.62839564 11.34122873 8.859375 19.02734375 C9.76838866 27.24054955 9.76838866 27.24054955 7.81640625 29.90234375 C6.19140625 31.02734375 6.19140625 31.02734375 4.19140625 31.02734375 C4.666154 33.17415906 5.14632374 35.31977603 5.62890625 37.46484375 C5.89574219 38.65980469 6.16257812 39.85476562 6.4375 41.0859375 C6.89207373 43.89781235 6.89207373 43.89781235 8.19140625 45.02734375 C8.74828125 44.03734375 9.30515625 43.04734375 9.87890625 42.02734375 C11.02359375 40.54234375 11.02359375 40.54234375 12.19140625 39.02734375 C12.98160156 39.08148438 13.77179688 39.135625 14.5859375 39.19140625 C15.44574219 39.13726562 16.30554688 39.083125 17.19140625 39.02734375 C19.38651128 36.59116577 19.38651128 36.59116577 21.19140625 33.40234375 C21.88234375 32.30535156 22.57328125 31.20835937 23.28515625 30.078125 C23.91421875 29.07136719 24.54328125 28.06460938 25.19140625 27.02734375 C28.55325901 22.13115703 32.61986334 18.23399426 38.19140625 16.02734375 C41.50417113 15.55008101 44.07668141 15.7895141 47.19140625 17.02734375 C51.63310287 20.50304239 53.86286554 24.58461244 55.19140625 30.02734375 C55.42285216 33.82342109 55.3801689 37.6011088 55.31640625 41.40234375 C55.30738281 42.42457031 55.29835938 43.44679687 55.2890625 44.5 C55.26561055 47.00935897 55.2327898 49.51822711 55.19140625 52.02734375 C56.51140625 52.68734375 57.83140625 53.34734375 59.19140625 54.02734375 C59.55062399 69.67327212 54.44671092 87.91188835 44.19140625 100.02734375 C37.96192825 106.40426501 33.09553581 109.30123068 24.00390625 109.52734375 C15.37677792 109.56425238 10.03938448 106.57153422 3.81640625 100.83984375 C-0.53664759 93.30571211 -2.10861315 86.64218654 -1.80859375 78.02734375 C-2.81124268 78.23939453 -3.8138916 78.45144531 -4.84692383 78.66992188 C-8.61500108 79.46375974 -12.38598863 80.24295757 -16.15795898 81.01806641 C-17.78116691 81.35368061 -19.40359158 81.69310901 -21.02514648 82.03662109 C-44.07614886 86.91265798 -44.07614886 86.91265798 -50.86328125 83.484375 C-53.29754747 80.40976967 -54.16493861 77.47944536 -54.93359375 73.71484375 C-55.09118164 73.01568848 -55.24876953 72.3165332 -55.41113281 71.59619141 C-55.89708275 69.4103984 -56.35396241 67.21984004 -56.80859375 65.02734375 C-57.11252176 63.63525064 -57.41718903 62.24331868 -57.72265625 60.8515625 C-58.9304099 55.18858562 -59.98558021 49.85019843 -59.80859375 44.02734375 C-60.75734375 43.92421875 -61.70609375 43.82109375 -62.68359375 43.71484375 C-65.80859375 43.02734375 -65.80859375 43.02734375 -67.80859375 40.02734375 C-72.84794794 21.51271206 -72.84794794 21.51271206 -68.828125 14.2578125 C-63.82229817 7.59957681 -56.69329202 6.36665084 -48.9921875 5.01953125 C-48.05810562 4.84857941 -47.12402374 4.67762756 -46.16163635 4.50149536 C-43.19127672 3.95982211 -40.21882325 3.4308397 -37.24609375 2.90234375 C-35.24398626 2.5399142 -33.2420312 2.17664152 -31.24023438 1.8125 C-27.57050584 1.14559039 -23.89987073 0.48416254 -20.22827148 -0.17236328 C-17.75898778 -0.61425077 -15.30184156 -1.07614319 -12.84375 -1.578125 C-8.52189503 -2.41595101 -3.91240364 -2.10407885 0 0 Z " fill="#825325" transform="translate(339.80859375,132.97265625)"/>
<path d="M0 0 C9.43177054 9.59651762 12.99344591 23.70555393 13.4140625 36.7578125 C13.21881858 48.2657186 8.94807304 57.28112197 2.0390625 66.3828125 C1.27980469 67.02734375 0.52054688 67.671875 -0.26171875 68.3359375 C-2.88924815 70.56865679 -4.41894595 72.28188444 -5.9609375 75.3828125 C-6.32192976 81.32715177 -5.40935805 86.97978887 -4.49658203 92.84814453 C-3.90411183 96.75779977 -3.39003527 100.67483578 -2.89453125 104.59765625 C-2.80093826 105.33757812 -2.70734528 106.0775 -2.61091614 106.83984375 C-2.41367564 108.39986396 -2.2165817 109.95990271 -2.0196228 111.5199585 C-1.70548893 113.98812214 -1.38455721 116.45531755 -1.06176758 118.92236328 C0.7830234 133.05981659 2.4284043 147.21699149 4.0390625 161.3828125 C6.04336442 179.0060844 8.15373655 196.60934155 10.47851562 214.19335938 C11.39365157 221.14149851 12.26752809 228.07523856 12.80566406 235.06542969 C13.0611042 237.60166171 13.49494455 240.06783158 13.9765625 242.5703125 C18.96068779 268.88800436 18.96068779 268.88800436 14.4140625 275.8828125 C11.18081915 277.92486093 8.85857293 278.31695887 5.0390625 278.3828125 C-0.26075059 276.4828795 -0.26075059 276.4828795 -2.0717926 273.63754272 C-3.14841625 270.90739618 -3.51565718 268.40905665 -3.87475586 265.49462891 C-4.02508774 264.30463287 -4.17541962 263.11463684 -4.33030701 261.88858032 C-4.48556351 260.60019257 -4.64082001 259.31180481 -4.80078125 257.984375 C-4.96941931 256.63023556 -5.13874875 255.27618205 -5.30873108 253.92221069 C-5.75620428 250.3442779 -6.19506735 246.76534206 -6.63189697 243.18609619 C-7.06718716 239.62871779 -7.50916006 236.07217347 -7.95117188 232.515625 C-8.08025531 231.47610593 -8.08025531 231.47610593 -8.21194649 230.41558647 C-8.97122564 224.30322507 -9.73338136 218.1912262 -10.4989624 212.07965088 C-10.79285728 209.72783174 -11.08478522 207.37576534 -11.37408447 205.02337646 C-12.71491002 194.17152668 -14.27574605 183.75112383 -17.4609375 173.2578125 C-20.56908405 162.37686246 -22.77147436 151.63474079 -23.9609375 140.3828125 C-24.05737549 139.52252441 -24.15381348 138.66223633 -24.25317383 137.77587891 C-25.23040354 127.91220441 -25.00602784 118.05798417 -24.86499023 108.16064453 C-24.3855084 93.09292496 -24.3855084 93.09292496 -26.9609375 78.3828125 C-29.23480723 76.07811064 -31.36929086 74.62334324 -34.16796875 73.00390625 C-43.78852004 67.4199499 -51.24198165 58.66670426 -55.12890625 48.25390625 C-56.22608632 43.14918583 -56.29033013 38.27662055 -56.2734375 33.0703125 C-56.28955078 32.08869141 -56.30566406 31.10707031 -56.32226562 30.09570312 C-56.32934507 19.39866576 -53.7966844 9.68541915 -46.3984375 1.6953125 C-33.66542387 -10.09451493 -13.4745217 -11.11245415 0 0 Z " fill="#7F4F22" transform="translate(60.9609375,139.6171875)"/>
<path d="M0 0 C1.0209375 -0.01160156 1.0209375 -0.01160156 2.0625 -0.0234375 C4.71396801 0.52182407 5.43427948 1.14704204 7 3.375 C7.11436985 5.9950401 7.05207626 8.31411747 6.81640625 10.90625 C6.73151695 12.03117859 6.73151695 12.03117859 6.64491272 13.17883301 C5.898797 22.56065641 4.76961606 31.90558008 3.65405273 41.24902344 C2.13593089 53.27619053 2.13593089 53.27619053 2 65.375 C3.06645115 66.67133621 3.06645115 66.67133621 5.5625 66.4375 C6.366875 66.416875 7.17125 66.39625 8 66.375 C9.6060046 63.49591431 10.32235163 61.15781592 10.65429688 57.88525391 C10.74779419 57.00398834 10.8412915 56.12272278 10.93762207 55.2147522 C11.03039429 54.2698996 11.1231665 53.325047 11.21875 52.3515625 C11.37386047 50.88316422 11.37386047 50.88316422 11.53210449 49.38510132 C11.86210132 46.25745017 12.18210806 43.12890313 12.5 40 C12.818238 36.87828257 13.13885901 33.75692079 13.46789551 30.63632202 C13.67246434 28.69592652 13.87090478 26.75487235 14.06237793 24.81314087 C14.55759899 20.11200799 15.10001189 15.75788692 17 11.375 C19.79870027 9.97564987 21.90498792 10.12234595 25 10.375 C26.67425537 11.55937195 26.67425537 11.55937195 28 13.375 C29.2043102 21.8959623 27.56886174 31.0820599 26.609375 39.57421875 C26.46186169 40.9031252 26.31450575 42.23204912 26.16729736 43.56098938 C25.85937117 46.32386272 25.54588454 49.08604054 25.22900391 51.84790039 C24.8267039 55.36285008 24.44423822 58.87965509 24.06658554 62.39732647 C23.76949166 65.13449106 23.45895258 67.87001237 23.14478302 70.60526466 C22.92762679 72.52341302 22.72385292 74.44306153 22.52044678 76.36271667 C21.21772924 87.37234976 18.2578783 95.73905396 10 103.375 C6.56961052 105.85808528 3.13477624 107.44715261 -1 108.375 C-2.75391141 117.99179032 -3.88381008 127.64260069 -4.92358398 137.35522461 C-5.10587438 139.03362521 -5.28850113 140.7119893 -5.47143555 142.39031982 C-5.86219169 145.97983953 -6.2510373 149.56955909 -6.63848686 153.15943718 C-7.25176188 158.83737755 -7.87211961 164.5145304 -8.49391174 170.19154358 C-10.26030651 186.32601461 -12.02254433 202.46091854 -13.76586914 218.59790039 C-14.73077078 227.52891392 -15.70425122 236.45894782 -16.68744904 245.38796622 C-17.20660305 250.10617264 -17.72123344 254.82477715 -18.22521782 259.54463005 C-18.69838536 263.97570496 -19.18270526 268.40541679 -19.67563629 272.83433533 C-19.85440109 274.45885308 -20.02901663 276.08383363 -20.19916725 277.7092762 C-20.43208187 279.92846517 -20.67986257 282.14550952 -20.93138123 284.36265564 C-21.06613074 285.60347365 -21.20088026 286.84429167 -21.3397131 288.12271023 C-22.33774014 293.0385629 -23.8266344 295.59275627 -28 298.375 C-32.71186325 298.90698456 -34.89366112 299.02036434 -39 296.625 C-44.32674259 287.9690433 -40.34013318 273.92919928 -39.1875 264.125 C-39.01959813 262.64850381 -38.8522788 261.17194126 -38.68554688 259.6953125 C-37.83338705 252.21137894 -36.92456135 244.73520278 -35.97918415 237.26249886 C-34.25046225 223.58418234 -32.64479219 209.89346492 -31.08203125 196.1953125 C-30.95239172 195.06035213 -30.82275219 193.92539177 -30.68918419 192.75603867 C-30.00676111 186.77943545 -29.32605812 180.80263918 -28.64672852 174.82568359 C-27.94875471 168.6881898 -27.24423699 162.55146461 -26.53838062 156.41487312 C-25.9916183 151.65052056 -25.44982721 146.88561198 -24.90936852 142.12054062 C-24.65170637 139.85664304 -24.39216842 137.59295807 -24.13065529 135.32950211 C-23.76646332 132.17353187 -23.40938424 129.01683076 -23.05395508 125.85986328 C-22.94645935 124.94234283 -22.83896362 124.02482239 -22.72821045 123.07949829 C-21.62749111 114.2290753 -21.62749111 114.2290753 -22 105.375 C-24.61377224 103.0481975 -24.61377224 103.0481975 -28 101.375 C-33.60257421 96.33542957 -37.54432082 89.57956545 -38.20881653 81.98999023 C-38.15072292 74.00444024 -37.41846403 66.12354979 -36.57421875 58.1875 C-36.4243443 56.75310494 -36.2745917 55.31869714 -36.12495422 53.88427734 C-35.81220592 50.90204351 -35.49458949 47.92037313 -35.17407227 44.93896484 C-34.76434331 41.11936907 -34.37232857 37.29817145 -33.98445415 33.4763031 C-33.68199891 30.52425949 -33.36763733 27.57357327 -33.04990578 24.62313843 C-32.90009324 23.21378515 -32.75460605 21.80396503 -32.61356163 20.39370728 C-32.41594988 18.43044137 -32.19997626 16.46904977 -31.9831543 14.5078125 C-31.86546188 13.39293457 -31.74776947 12.27805664 -31.62651062 11.12939453 C-30.95384877 8.17210049 -30.47552943 7.08386813 -28 5.375 C-24.5 4.9375 -24.5 4.9375 -21 5.375 C-18.49807437 7.707495 -18.0189663 8.97619512 -17.85546875 12.4140625 C-18.01982422 14.18910156 -18.01982422 14.18910156 -18.1875 16 C-18.24284912 16.64807617 -18.29819824 17.29615234 -18.35522461 17.96386719 C-18.75285609 22.41860713 -19.27741894 26.85973613 -19.79370117 31.30200195 C-21.19799645 43.43812324 -21.98527967 52.86879648 -17 64.375 C-13.57928713 62.60453355 -13.57928713 62.60453355 -13.23217773 58.56225586 C-13.03532826 56.90638821 -12.85356434 55.24868594 -12.68359375 53.58984375 C-12.58160172 52.70075821 -12.47960968 51.81167267 -12.37452698 50.89564514 C-12.04939346 48.03586544 -11.74312828 45.17442346 -11.4375 42.3125 C-11.22847002 40.44191646 -11.01819668 38.57147141 -10.80664062 36.70117188 C-9.60067396 26.01503562 -9.60067396 26.01503562 -8.50830078 15.31689453 C-8.42814224 14.53343155 -8.3479837 13.74996857 -8.26539612 12.94276428 C-8.1163355 11.48520251 -7.97742979 10.02655153 -7.85069275 8.56687927 C-7.55152463 5.73177645 -7.28460411 3.75596424 -5.55639648 1.44262695 C-3.59106293 0.09448521 -2.37093215 -0.02694241 0 0 Z " fill="#7F4F22" transform="translate(479,122.625)"/>
<path d="M0 0 C0.77472656 0.23332031 1.54945313 0.46664063 2.34765625 0.70703125 C22.34093356 7.64606094 38.76582789 28.49269302 48 47 C48 47.66 48 48.32 48 49 C49.28583984 48.45859375 49.28583984 48.45859375 50.59765625 47.90625 C62.37725914 43.12535142 62.37725914 43.12535142 68 44 C70 46 70 46 70 48.92578125 C69 52 69 52 66.3125 53.66796875 C65.219375 54.16941406 64.12625 54.67085938 63 55.1875 C58.61428847 57.79161933 58.61428847 57.79161933 56.37011719 62.18505859 C55.73647705 67.17276771 55.82173223 72.14436289 56.12841797 77.15576172 C56 79 56 79 54 81 C51.5625 81.375 51.5625 81.375 49 81 C45.74434664 77.99478151 44.02268951 73.25757974 43 69 C42.94912944 66.66722126 42.9409116 64.33258505 43 62 C41.93652344 62.2165625 41.93652344 62.2165625 40.8515625 62.4375 C20.31480777 66.01775748 -5.12328119 67.05281829 -23.546875 55.75 C-32.03162935 49.69718161 -37.97658954 43.13981624 -43 34 C-43.3609375 33.37222656 -43.721875 32.74445313 -44.09375 32.09765625 C-46.98216555 26.41443121 -47.05966224 20.33106786 -45.15625 14.34765625 C-42.00067965 7.25828368 -37.76979277 3.18166174 -30.75390625 -0.02734375 C-21.03939211 -3.48883729 -9.77179185 -3.10187154 0 0 Z " fill="#EA5542" transform="translate(341,277)"/>
<path d="M0 0 C4.65708048 3.72566438 6.6873742 6.16606701 7.9375 12.125 C8.17984375 13.22585937 8.4221875 14.32671875 8.671875 15.4609375 C9.17683319 18.68195869 9.4985609 21.50215825 9.1875 24.75 C8.67574219 25.20890625 8.16398437 25.6678125 7.63671875 26.140625 C5.77690198 27.8290005 5.77690198 27.8290005 6.33203125 31.296875 C6.53804983 32.70045966 6.76140182 34.10158502 7 35.5 C8.28985692 43.68181428 8.71962802 50.31463037 5.75 58.25 C3.96835076 63.09089568 2.76153242 67.62989472 2.1875 72.75 C-2.2493723 73.71125451 -6.68710869 74.66846202 -11.125 75.625 C-12.36830078 75.89441406 -13.61160156 76.16382813 -14.89257812 76.44140625 C-38.15351184 81.44769645 -38.15351184 81.44769645 -43.8125 79.75 C-48.54538577 75.9822324 -49.77618353 72.45881999 -50.65625 66.67578125 C-50.93618656 65.10611777 -51.21613482 63.53645637 -51.49609375 61.96679688 C-51.90973373 59.50541715 -52.31571259 57.04289087 -52.71923828 54.57983398 C-53.1174787 52.19157814 -53.54210431 49.80909878 -53.96875 47.42578125 C-54.08037476 46.68620682 -54.19199951 45.94663239 -54.30700684 45.18464661 C-54.67465431 42.86197073 -54.67465431 42.86197073 -55.8125 39.75 C-58.26119842 38.29540965 -58.26119842 38.29540965 -60.8125 37.75 C-64.861012 31.71177562 -64.87201844 22.65912865 -63.8125 15.75 C-62.12716179 11.89024505 -59.72985004 9.54871904 -55.8269043 7.92285156 C-47.98662312 5.6354302 -40.01871561 4.12317696 -32 2.625 C-30.59430811 2.35856273 -29.18870841 2.09163862 -27.78320312 1.82421875 C-25.21172658 1.33534749 -22.63970715 0.84983804 -20.06713867 0.36669922 C-18.04983313 -0.01554621 -16.03450984 -0.40863456 -14.02270508 -0.81884766 C-9.19726351 -1.76016322 -4.53324301 -2.01477467 0 0 Z " fill="#FCFBFA" transform="translate(336.8125,135.25)"/>
<path d="M0 0 C1.51034439 0.30707303 3.01612175 0.64591943 4.5 1.0625 C4.17 3.7025 3.84 6.3425 3.5 9.0625 C6.8 7.7425 10.1 6.4225 13.5 5.0625 C14.180625 6.485625 14.180625 6.485625 14.875 7.9375 C16.30238254 11.06563679 16.30238254 11.06563679 18.5 13.0625 C18.5 38.2541964 -7.75718054 68.25252809 -24.25 85.1875 C-33.76687992 94.66482767 -46.40104777 104.87175724 -60.3125 105.625 C-65.62653225 105.25984046 -69.27576938 103.23605195 -73.04296875 99.5546875 C-76.25998268 95.67985279 -77.25039524 92.33344117 -76.90234375 87.31640625 C-74.94382431 76.34489444 -65.55544484 70.17873291 -57 64.0625 C-43.02521601 54.00771152 -34.58290731 42.10422099 -25.4609375 27.71875 C-24.76307129 26.61853516 -24.06520508 25.51832031 -23.34619141 24.38476562 C-21.98210651 22.22281975 -20.62710471 20.05510717 -19.28271484 17.88085938 C-7.6501503 -0.67690544 -7.6501503 -0.67690544 0 0 Z " fill="#01834E" transform="translate(218.5,181.9375)"/>
<path d="M0 0 C7.44085561 5.7256335 13.36540619 12.57981213 14.8203125 22.140625 C15.09556812 28.12284722 13.89537661 32.71778237 10.4375 37.625 C4.16609645 44.26530964 -5.73680908 46.42957995 -14.54150391 46.78613281 C-16.04062258 46.80609233 -17.53983424 46.81976989 -19.0390625 46.828125 C-20.24881241 46.83667511 -20.24881241 46.83667511 -21.48300171 46.84539795 C-23.1857575 46.85480964 -24.88853119 46.86136662 -26.59130859 46.86523438 C-29.15886428 46.87489229 -31.72560208 46.90593199 -34.29296875 46.9375 C-47.11854248 47.02123369 -59.47266064 46.56293381 -69.5625 37.625 C-74.38550227 32.09619252 -74.15829349 26.54074078 -73.9453125 19.36328125 C-73.25065786 12.57976608 -71.4857015 7.72710396 -66.875 2.6875 C-62.85612301 0.18518037 -59.07407407 -1.03870867 -54.5625 -2.375 C-51.33167208 -3.46207063 -48.10406905 -4.5576796 -44.87915039 -5.66210938 C-29.37474763 -10.87831615 -13.67153585 -9.08019548 0 0 Z " fill="#FEFDFB" transform="translate(342.5625,351.375)"/>
<path d="M0 0 C2.08134048 1.10188614 3.56349118 2.05604418 5.18359375 3.7734375 C6.81715145 5.55271199 6.81715145 5.55271199 10.4375 6 C16.4863349 7.34789875 20.1796141 10.99863337 23.625 16 C25.51029271 21.65587814 25.56354881 26.82460537 23.25 32.375 C20.55366217 37.11257949 16.64791096 40.03321896 11.6875 42.1875 C7.37565848 42.91795999 3.65433533 42.42920883 -0.5625 41.375 C-3.53858628 40.84933128 -3.53858628 40.84933128 -5.9375 43.4375 C-6.72125 44.345 -7.505 45.2525 -8.3125 46.1875 C-12.42022704 49.57033403 -15.66872231 50.46180318 -21.0390625 50.421875 C-24.99970469 50.01356137 -28.6201023 48.62343244 -32.3125 47.1875 C-33.0859375 48.54875 -33.0859375 48.54875 -33.875 49.9375 C-36.75172695 54.29898924 -40.72301592 55.89275796 -45.3125 58.1875 C-51.99649267 58.71173472 -56.51585216 57.03074517 -62.0625 53.375 C-66.50016562 49.06060287 -67.52460212 45.25821631 -67.75 39.1875 C-67.60334101 34.02892928 -66.916185 31.07568645 -63.3125 27.1875 C-62.301875 26.40375 -61.29125 25.62 -60.25 24.8125 C-57.37461904 22.24301063 -56.95228308 21.71693355 -55.9375 18.3125 C-54.31309247 13.12424081 -50.58988731 10.32061809 -46.3125 7.1875 C-42.39476724 5.22863362 -37.59288334 5.82526728 -33.3125 6.1875 C-29.75 7.6875 -29.75 7.6875 -27.3125 9.1875 C-26.6525 9.1875 -25.9925 9.1875 -25.3125 9.1875 C-24.260625 7.57875 -24.260625 7.57875 -23.1875 5.9375 C-17.64618154 -2.07384897 -8.65837381 -4.09966877 0 0 Z " fill="#01834E" transform="translate(171.3125,145.8125)"/>
<path d="M0 0 C0.495 2.475 0.495 2.475 1 5 C-0.98 5.66 -2.96 6.32 -5 7 C-4.44967902 10.4306283 -4.44967902 10.4306283 -3 14 C-0.01565163 15.99425024 -0.01565163 15.99425024 3 17 C3.103125 16.401875 3.20625 15.80375 3.3125 15.1875 C4.12162743 12.61300362 4.90526736 11.6795604 7 10 C10.04798043 9.37693218 12.93601585 9.49671018 16 10 C18.5625 11.75 18.5625 11.75 20 14 C20 15.32 20 16.64 20 18 C21.0725 18.0825 22.145 18.165 23.25 18.25 C27 19 27 19 29.4375 20.625 C31.6518344 23.99078828 31.54642964 26.03838514 31 30 C30.319375 30.99 29.63875 31.98 28.9375 33 C26.4407201 36.86598178 27.27745988 38.58447704 28 43 C26.63571607 45.92346557 25.27249091 47.72750909 23 50 C23.33 50.66 23.66 51.32 24 52 C24.43244838 55.8920354 24.29425531 57.54880853 22.125 60.875 C21.42375 61.57625 20.7225 62.2775 20 63 C19.34 63 18.68 63 18 63 C18.495 63.804375 18.495 63.804375 19 64.625 C20.30335189 67.72046073 20.47632194 69.66574641 20 73 C17.5625 75.8125 17.5625 75.8125 15 78 C14.67 78.33 14.34 78.66 14 79 C10.30567496 79.41980966 8.43769254 79.25288902 5.1875 77.375 C2.59325866 74.55839511 2.25672062 72.7652358 2 69 C1.113125 69.0825 0.22625 69.165 -0.6875 69.25 C-4.78211541 68.94097242 -6.20218425 67.95769094 -9 65 C-9.8125 62.25 -9.8125 62.25 -10 60 C-11.3303125 60.1546875 -11.3303125 60.1546875 -12.6875 60.3125 C-16 60 -16 60 -18.875 57.75 C-21 55 -21 55 -21 51 C-22.8253125 51.185625 -22.8253125 51.185625 -24.6875 51.375 C-28.50271854 51.375 -28.90041884 51.08713352 -32 48.375 C-34.17817423 44.69933099 -34.79812987 43.16801155 -34 39 C-32.125 36.125 -32.125 36.125 -30 34 C-29.34 34 -28.68 34 -28 34 C-28.268125 32.80375 -28.53625 31.6075 -28.8125 30.375 C-29.21270268 27.06744256 -29.02188529 25.23007684 -27.0625 22.5 C-22.93851649 19.13348285 -21.20044585 19.49673105 -16 20 C-15.01 20 -14.02 20 -13 20 C-10.63307034 17.15173402 -10.63307034 17.15173402 -11.375 13.8125 C-11.58125 12.884375 -11.7875 11.95625 -12 11 C-14.64 11 -17.28 11 -20 11 C-20.33 9.35 -20.66 7.7 -21 6 C-5.47155689 -0.32185629 -5.47155689 -0.32185629 0 0 Z " fill="#C8223F" transform="translate(162,324)"/>
<path d="M0 0 C5.95365483 4.00831169 8.65874989 9.33468211 11 16 C11.3606388 19.52712675 11.43749348 22.99971824 11.51953125 26.54296875 C12.22458098 31.61588755 14.78399797 35.01292691 17.5234375 39.24609375 C19.43201751 42.80574695 19.63119304 45.12468865 18.78125 49.02734375 C17.13537 53.18319074 14.8083543 56.09319923 10.72827148 58.13916016 C5.34655763 59.83722933 -0.34180489 59.36930464 -5.9375 59.375 C-7.20013672 59.39949219 -8.46277344 59.42398438 -9.76367188 59.44921875 C-21.18298925 59.4853749 -21.18298925 59.4853749 -26 55 C-26.78375 54.278125 -27.5675 53.55625 -28.375 52.8125 C-30.72358997 48.74763274 -31.09991518 45.57821837 -30 41 C-28.4609375 38.46484375 -28.4609375 38.46484375 -26.5625 35.8125 C-23.45633224 31.38218901 -22.56843957 28.46673299 -22.4375 23.0625 C-22.23069208 14.88009981 -19.75500101 8.33751906 -14.36328125 2.109375 C-10.00345232 -1.58987379 -5.33031906 -1.89292249 0 0 Z " fill="#C8223F" transform="translate(223,344)"/>
<path d="M0 0 C2.01347336 6.53627545 0.1950482 12.57264153 -2.75390625 18.5625 C-10.59300964 32.44150847 -21.01584745 44.53463696 -32 56 C-32.82709473 56.87591797 -32.82709473 56.87591797 -33.67089844 57.76953125 C-66.29192357 92.18371657 -109.49999806 113.09356214 -156 121 C-156.75845215 121.13132324 -157.5169043 121.26264648 -158.29833984 121.39794922 C-188.77863704 126.40427308 -220.37877802 122.80642621 -250 115 C-249.505 114.01 -249.505 114.01 -249 113 C-247.9958606 113.21934204 -247.9958606 113.21934204 -246.97143555 113.44311523 C-243.87822458 114.11471844 -240.7829183 114.77614812 -237.6875 115.4375 C-236.63498047 115.66759766 -235.58246094 115.89769531 -234.49804688 116.13476562 C-221.74902594 118.84148084 -209.31103204 119.21262051 -196.32446289 119.24023438 C-193.59945299 119.24986934 -190.87522228 119.28094491 -188.15039062 119.3125 C-172.04977505 119.41050414 -156.31194884 117.71295352 -140.8125 113.1875 C-139.89509033 112.92598145 -138.97768066 112.66446289 -138.0324707 112.39501953 C-135.34827697 111.61729699 -132.67310733 110.81492146 -130 110 C-129.26749023 109.78005371 -128.53498047 109.56010742 -127.78027344 109.33349609 C-96.39463526 99.71340549 -67.49171972 81.77418708 -44 59 C-43.44070801 58.46648926 -42.88141602 57.93297852 -42.30517578 57.38330078 C-24.94040569 40.78497572 -10.78439763 21.4928488 0 0 Z " fill="#D8EEF4" transform="translate(444,351)"/>
<path d="M0 0 C3.67071613 0.20975521 4.9512345 0.95463674 7.6875 3.5 C13.46203396 11.21753753 12.45825793 21.84549851 12 31 C11.47394894 34.37930628 11.20238974 34.8131787 8.5625 37.25 C6 39 6 39 4 39 C3.773125 39.556875 3.54625 40.11375 3.3125 40.6875 C1.63281165 43.6469509 -0.54133285 45.66126784 -3 48 C-3.42152344 48.57105469 -3.84304688 49.14210937 -4.27734375 49.73046875 C-6 51 -6 51 -8.8828125 50.671875 C-9.95273437 50.36765625 -11.02265625 50.0634375 -12.125 49.75 C-13.20007813 49.45609375 -14.27515625 49.1621875 -15.3828125 48.859375 C-18 48 -18 48 -19 47 C-19.44562911 42.77509324 -19.67636067 39.15544948 -17.5 35.4375 C-17.005 34.963125 -16.51 34.48875 -16 34 C-16.33 33.34 -16.66 32.68 -17 32 C-17.825 31.7525 -18.65 31.505 -19.5 31.25 C-22 30 -22 30 -23.0625 27.25 C-22.98183706 23.05552733 -21.614291 21.21184322 -19 18 C-18.34 17.67 -17.68 17.34 -17 17 C-16.814375 15.88625 -16.814375 15.88625 -16.625 14.75 C-15.85400165 11.35760726 -14.28101359 9.57533793 -12 7 C-10.02 7.66 -8.04 8.32 -6 9 C-6.33 10.32 -6.66 11.64 -7 13 C-6.525625 12.505 -6.05125 12.01 -5.5625 11.5 C-4 10 -4 10 -3 10 C-3.598125 9.731875 -4.19625 9.46375 -4.8125 9.1875 C-6.97224808 8.01506533 -8.35790256 6.80630718 -10 5 C-7.75 2.9375 -7.75 2.9375 -5 1 C-2.6875 1.25 -2.6875 1.25 -1 2 C-0.67 1.34 -0.34 0.68 0 0 Z " fill="#FAF8F4" transform="translate(381,152)"/>
<path d="M0 0 C0 0.33 0 0.66 0 1 C-5.02629086 1.1546551 -9.34994747 0.57126655 -14.25 -0.5 C-34.44655397 -4.32329778 -57.79271545 -3.36550734 -78 0 C-78.76715332 0.1129541 -79.53430664 0.2259082 -80.32470703 0.34228516 C-101.78377493 3.52345676 -121.94971254 10.68762602 -141.4375 20.0625 C-142.61505859 20.62759277 -143.79261719 21.19268555 -145.00585938 21.77490234 C-155.74297964 27.09298883 -165.50442105 33.68033261 -175.0625 40.875 C-175.73732422 41.38184326 -176.41214844 41.88868652 -177.10742188 42.41088867 C-182.19872549 46.28446969 -186.95134823 50.38921349 -191.6171875 54.76953125 C-193.73601127 56.75288924 -195.90477551 58.6323994 -198.125 60.5 C-211.89347007 72.57174952 -222.69310116 88.30115907 -232.07421875 103.90234375 C-234 107 -234 107 -236 109 C-238 106 -238 106 -237.8984375 103.25 C-236.8096657 99.31148637 -234.93475999 96.31051044 -232.625 93 C-232.17946777 92.34918457 -231.73393555 91.69836914 -231.27490234 91.02783203 C-223.07575716 79.19669717 -213.93848965 68.39740981 -204 58 C-203.36449219 57.32324219 -202.72898438 56.64648438 -202.07421875 55.94921875 C-150.83032309 2.74851562 -70.50174463 -14.80147125 0 0 Z " fill="#D9EEF5" transform="translate(304,43)"/>
<path d="M0 0 C4.20779652 3.18150469 7.95404181 6.02427594 9.078125 11.40625 C9.25119014 15.51036628 8.76812693 18.44212603 7.1875 22.25 C2.49179497 27.05750754 -3.26316096 30.15826546 -10.0625 30.5 C-15.49192994 30.1450726 -20.06038596 28.19664312 -24.01171875 24.44140625 C-27.00663841 21.00025215 -28.2568976 18.25331752 -28.875 13.75 C-28.27352111 8.50854113 -26.05606993 5.66521473 -22.4375 1.9375 C-16.3628956 -2.80365466 -7.07507454 -2.18684122 0 0 Z " fill="#EA5845" transform="translate(322.4375,350.0625)"/>
<path d="M0 0 C1.53202706 0.25195908 3.05257128 0.57596777 4.5625 0.9375 C5.38878906 1.13214844 6.21507812 1.32679688 7.06640625 1.52734375 C7.70449219 1.68332031 8.34257812 1.83929688 9 2 C7.74914667 5.54003638 6.35545415 7.78846553 3.875 10.5625 C-0.1416606 16.22628041 0.64708145 22.35725877 1.13427734 28.99243164 C1.26936511 31.40810512 1.35365309 33.60566913 1 36 C-1.67646234 38.98493597 -3.13623784 39.84134981 -7.0625 40.5625 C-10 40 -10 40 -12.1875 38.0625 C-13.76040743 35.40482882 -14.41450455 33.65381845 -15.1875 30.75 C-17.67036072 22.56474488 -25.52000656 17.15076401 -32 12 C-31.01 10.02 -30.02 8.04 -29 6 C-28.443125 6.2165625 -27.88625 6.433125 -27.3125 6.65625 C-20.81015681 9.02872657 -15.53647027 10.31750853 -8.8125 7.8125 C-5.76274981 5.84710543 -3.45320295 3.66347749 -1 1 C-0.67 0.67 -0.34 0.34 0 0 Z " fill="#F9FCF9" transform="translate(168,186)"/>
<path d="M0 0 C3.67071613 0.20975521 4.9512345 0.95463674 7.6875 3.5 C13.46203396 11.21753753 12.45825793 21.84549851 12 31 C11.47394894 34.37930628 11.20238974 34.8131787 8.5625 37.25 C6 39 6 39 4 39 C3.34 40.32 2.68 41.64 2 43 C1.731875 42.360625 1.46375 41.72125 1.1875 41.0625 C0.11332248 38.66868314 0.11332248 38.66868314 -3 38 C-1.68 38 -0.36 38 1 38 C1.33 33.71 1.66 29.42 2 25 C-0.31 24.67 -2.62 24.34 -5 24 C-1.63458162 22.91825838 -0.70152678 23.07461831 3 24 C3.33 20.37 3.66 16.74 4 13 C2.68 12.34 1.36 11.68 0 11 C-0.804375 10.505 -1.60875 10.01 -2.4375 9.5 C-4.90357038 8.0564466 -7.32573149 6.99329973 -10 6 C-7.75 3.4375 -7.75 3.4375 -5 1 C-2.6875 1.1875 -2.6875 1.1875 -1 2 C-0.67 1.34 -0.34 0.68 0 0 Z " fill="#B5956D" transform="translate(381,152)"/>
<path d="M0 0 C0.33 0 0.66 0 1 0 C1.94290242 7.51738081 2.88474499 15.03489393 3.82592773 22.55249023 C4.14470708 25.09776658 4.46370923 27.64301503 4.78295898 30.18823242 C5.71063814 37.58483013 6.63282282 44.98208139 7.54937744 52.38006592 C7.99468388 55.95729463 8.44705692 59.53358221 8.89990234 63.10986328 C9.17704891 65.3349247 9.45391781 67.56002072 9.73046875 69.78515625 C9.85931961 70.78792099 9.98817047 71.79068573 10.1209259 72.82383728 C10.83077832 78.59955107 11.12154352 84.18049621 11 90 C8.20447182 85.80670773 7.31829951 81.41000402 6.0625 76.5625 C5.79671143 75.53858154 5.53092285 74.51466309 5.25708008 73.4597168 C2.80472273 63.71721772 1.18883662 53.96775562 0 44 C-0.13148437 42.98808594 -0.26296875 41.97617187 -0.3984375 40.93359375 C-1.15649955 33.89590957 -1.09796789 26.82075106 -1.125 19.75 C-1.12975342 18.71907227 -1.13450684 17.68814453 -1.1394043 16.62597656 C-1.12708716 10.98928893 -0.84023256 5.57487638 0 0 Z " fill="#DBEBEF" transform="translate(37,236)"/>
<path d="M0 0 C0.99 0 1.98 0 3 0 C2.07996002 6.70314843 2.07996002 6.70314843 1.375 9.3203125 C0.89365286 12.75993892 1.57692305 15.33316227 2.4375 18.6875 C4 24.87443946 4 24.87443946 4 27 C2.25 26.875 2.25 26.875 0 26 C-2.25 22.9375 -2.25 22.9375 -4 20 C-4.928125 20.495 -5.85625 20.99 -6.8125 21.5 C-10 23 -10 23 -13 23 C-13 20.69 -13 18.38 -13 16 C-13.63808594 15.87882813 -14.27617187 15.75765625 -14.93359375 15.6328125 C-16.17302734 15.38144531 -16.17302734 15.38144531 -17.4375 15.125 C-18.26121094 14.96257812 -19.08492187 14.80015625 -19.93359375 14.6328125 C-20.61550781 14.42398438 -21.29742187 14.21515625 -22 14 C-22.33 13.34 -22.66 12.68 -23 12 C-16.14115041 8.73110147 -10.59570439 7.41820137 -3 8 C-2.690625 7.05125 -2.38125 6.1025 -2.0625 5.125 C-1 2 -1 2 0 0 Z " fill="#F4F9F5" transform="translate(235,168)"/>
<path d="M0 0 C0.66 0 1.32 0 2 0 C2.84666371 13.12328752 -11.49721721 27.58501946 -19.6328125 37.13671875 C-26.1802124 44.53765758 -26.1802124 44.53765758 -30 47 C-32.25 46.6875 -32.25 46.6875 -34 46 C-32.69459784 43.13021823 -31.29284771 41.03715679 -29.09375 38.78515625 C-28.51955322 38.18815918 -27.94535645 37.59116211 -27.35375977 36.97607422 C-26.74201904 36.34459473 -26.13027832 35.71311523 -25.5 35.0625 C-16.27538117 25.33007141 -8.37775526 15.48424329 -2.27734375 3.484375 C-1 1 -1 1 0 0 Z " fill="#309A6F" transform="translate(203,202)"/>
<path d="M0 0 C1.98 0.66 3.96 1.32 6 2 C0.89462225 18.5996081 0.89462225 18.5996081 -3 24 C-4.96875 24.89453125 -4.96875 24.89453125 -7 25 C-10 23 -10 23 -10.9375 20.25 C-11.01913293 16.00508782 -9.63908056 14.24229898 -7 11 C-6.34 10.67 -5.68 10.34 -5 10 C-4.814375 8.88625 -4.814375 8.88625 -4.625 7.75 C-3.85400165 4.35760726 -2.28101359 2.57533793 0 0 Z " fill="#E6DBCE" transform="translate(369,159)"/>
<path d="M0 0 C2.19395457 3.65659096 2.70872981 7.48581454 3.375 11.625 C5.08697744 21.31525232 7.3693591 30.23117266 15 37 C17.2824136 38.54763256 19.52424184 39.76212092 22 41 C19.63782548 41.83988427 18.44632878 42.17347191 16.0703125 41.25 C8.08655579 36.11987521 3.51062317 30.80408757 0.6796875 21.62109375 C-0.66180779 14.47416194 -0.28950769 7.23769228 0 0 Z " fill="#A07D5B" transform="translate(13,165)"/>
<path d="M0 0 C0.33 0 0.66 0 1 0 C1.08636719 1.22074219 1.17273438 2.44148437 1.26171875 3.69921875 C2.24899558 15.8648972 3.39896066 29.2920806 13 38 C15.59199822 39.53295417 18.22656359 40.83006405 21 42 C18 43 18 43 16.1328125 42.36328125 C7.77653055 37.99005198 2.53549804 33.3091209 -0.6328125 24.17578125 C-1.1684576 21.00179914 -1.13146546 17.90406803 -1.125 14.6875 C-1.12757813 13.41261719 -1.13015625 12.13773438 -1.1328125 10.82421875 C-1.00388874 7.11197286 -0.59632587 3.6584119 0 0 Z " fill="#A07D5B" transform="translate(447,181)"/>
<path d="M0 0 C1.32 0.66 2.64 1.32 4 2 C4 2.99 4 3.98 4 5 C3.67 4.34 3.34 3.68 3 3 C0.69 4.32 -1.62 5.64 -4 7 C-3.443125 7.268125 -2.88625 7.53625 -2.3125 7.8125 C1.27600651 9.65524658 4.64489054 11.76326036 8 14 C5.36 13.67 2.72 13.34 0 13 C-0.99 14.65 -1.98 16.3 -3 18 C-3.33 17.34 -3.66 16.68 -4 16 C-3.0625 13.875 -3.0625 13.875 -2 12 C-4.475 11.01 -4.475 11.01 -7 10 C-10.35622898 14.5052839 -10.35622898 14.5052839 -11 20 C-13.31 20.66 -15.62 21.32 -18 22 C-14.84852125 12.92907703 -8.21191777 4.89220633 0 0 Z " fill="#9A7245" transform="translate(376,150)"/>
<path d="M0 0 C5.445 1.485 5.445 1.485 11 3 C9.9326323 4.98782243 8.84554158 6.96506484 7.75 8.9375 C7.14671875 10.03964844 6.5434375 11.14179688 5.921875 12.27734375 C4 15 4 15 1.828125 15.94140625 C1.22484375 15.96074219 0.6215625 15.98007813 0 16 C-0.33 15.67 -0.66 15.34 -1 15 C-0.90913549 12.46458702 -0.7629055 9.96445216 -0.5625 7.4375 C-0.51029297 6.72658203 -0.45808594 6.01566406 -0.40429688 5.28320312 C-0.27425893 3.52178001 -0.13773103 1.76083827 0 0 Z " fill="#FBF9F6" transform="translate(363,201)"/>
<path d="M0 0 C1.65 0.33 3.3 0.66 5 1 C5.125 7.625 5.125 7.625 4 11 C-2.03544734 10.30360223 -5.87125851 9.54161564 -10 5 C-7.75 2.9375 -7.75 2.9375 -5 1 C-2.6875 1.25 -2.6875 1.25 -1 2 C-0.67 1.34 -0.34 0.68 0 0 Z " fill="#FBF9F5" transform="translate(381,152)"/>
<path d="M0 0 C7.30156859 6.04267745 7.43483226 14.71546823 8.4609375 23.515625 C8.90081335 26.35888048 9.34349785 28.29740232 10.625 30.8125 C12.53165054 35.23246261 12.25775129 39.25546701 12 44 C11.01 44.495 11.01 44.495 10 45 C9.89042969 44.28714844 9.78085938 43.57429688 9.66796875 42.83984375 C9.50941406 41.88207031 9.35085937 40.92429687 9.1875 39.9375 C9.03667969 38.99777344 8.88585937 38.05804688 8.73046875 37.08984375 C8.07972965 33.89034945 8.07972965 33.89034945 6.48828125 30.68359375 C4.76030685 26.40674373 4.3489958 22.68117376 4 18.125 C3.40728565 11.67611013 2.46211089 6.04336308 0 0 Z " fill="#D6596F" transform="translate(225,349)"/>
<path d="M0 0 C2.84647683 1.31711976 5.09378117 2.81259443 7.5 4.8125 C19.05944676 13.52458304 33.07754494 15.0548187 47 17 C47 17.33 47 17.66 47 18 C31.5531074 18.69280083 16.83278255 16.12456895 4.375 6.375 C2.27585604 4.27585604 1.02239251 2.76045978 0 0 Z " fill="#FBE2DF" transform="translate(310,319)"/>
<path d="M0 0 C1.65 0.33 3.3 0.66 5 1 C6.00821159 3.68856424 6.22736824 5.41703215 5.17578125 8.11328125 C4.16604698 10.10794931 3.11893353 12.0646772 2 14 C-0.4375 13.375 -0.4375 13.375 -3 12 C-4.0625 9.25 -4.0625 9.25 -4 6 C-2.0625 2.625 -2.0625 2.625 0 0 Z " fill="#FBF9F5" transform="translate(362,170)"/>
<path d="M0 0 C2.31 0 4.62 0 7 0 C7.29356154 3.05304005 7.4244472 5.95550833 7 9 C4.75 11.5625 4.75 11.5625 2 13 C0.68 13 -0.64 13 -2 13 C-1.85915204 11.20793453 -1.71216299 9.41635083 -1.5625 7.625 C-1.48128906 6.62726563 -1.40007812 5.62953125 -1.31640625 4.6015625 C-1 2 -1 2 0 0 Z " fill="#FBF9F5" transform="translate(385,178)"/>
<path d="M0 0 C3.99338327 -0.0621193 7.59068918 -0.06953986 10.86328125 2.4140625 C15.25616253 7.36286673 17.39417559 12.29901495 17 19 C16.01 19 15.02 19 14 19 C13.87882812 18.38511719 13.75765625 17.77023438 13.6328125 17.13671875 C13.46523438 16.32847656 13.29765625 15.52023438 13.125 14.6875 C12.96257812 13.88699219 12.80015625 13.08648437 12.6328125 12.26171875 C12.05521001 9.74698882 12.05521001 9.74698882 10 7 C9.01 8.485 9.01 8.485 8 10 C8 8.02 8 6.04 8 4 C5.03 3.67 2.06 3.34 -1 3 C-0.67 2.01 -0.34 1.02 0 0 Z " fill="#8A5C2C" transform="translate(378,149)"/>
<path d="M0 0 C-0.33451975 2.95820408 -0.9044208 3.91277745 -3.14453125 5.95703125 C-4.02496094 6.56933594 -4.90539062 7.18164062 -5.8125 7.8125 C-6.68519531 8.43769531 -7.55789062 9.06289063 -8.45703125 9.70703125 C-11 11 -11 11 -13.32421875 10.69921875 C-13.87722656 10.46847656 -14.43023437 10.23773438 -15 10 C-13.60068938 6.69906213 -12.03783328 4.90818734 -9.1875 2.75 C-8.52105469 2.22921875 -7.85460937 1.7084375 -7.16796875 1.171875 C-4.59681976 -0.21793527 -2.88056816 -0.22119546 0 0 Z " fill="#2E9A6E" transform="translate(168,250)"/>
<path d="M0 0 C2.97 0.495 2.97 0.495 6 1 C6 4.63 6 8.26 6 12 C3.69 12 1.38 12 -1 12 C-0.67 8.04 -0.34 4.08 0 0 Z " fill="#FCFBF8" transform="translate(386,165)"/>
<path d="M0 0 C0.33 0.66 0.66 1.32 1 2 C-8.24 3.65 -17.48 5.3 -27 7 C-27.33 6.01 -27.66 5.02 -28 4 C-23.71043104 3.13505996 -19.41807029 2.28487565 -15.125 1.4375 C-13.90167969 1.19064453 -12.67835938 0.94378906 -11.41796875 0.68945312 C-9.66806641 0.34624023 -9.66806641 0.34624023 -7.8828125 -0.00390625 C-6.80402832 -0.21861572 -5.72524414 -0.4333252 -4.61376953 -0.65454102 C-2 -1 -2 -1 0 0 Z " fill="#8F6231" transform="translate(328,211)"/>
<path d="M0 0 C-1.875 4.875 -1.875 4.875 -3 6 C-3.23481693 8.18292774 -3.41363323 10.37203174 -3.5625 12.5625 C-3.68818359 14.35880859 -3.68818359 14.35880859 -3.81640625 16.19140625 C-3.87699219 17.11824219 -3.93757813 18.04507812 -4 19 C-7.9453125 15.4921875 -7.9453125 15.4921875 -8.4375 11.0625 C-8.24391087 7.34973709 -7.34729957 4.95585872 -5 2 C-2 0 -2 0 0 0 Z " fill="#FCE9DE" transform="translate(306,353)"/>
<path d="M0 0 C4.42981628 5.58542052 4.27469333 10.61193859 4.62109375 17.5546875 C4.97391804 20.76284236 5.63732692 23.09811319 7 26 C6.01 26 5.02 26 4 26 C2.3609037 20.02900633 1.34345123 14.08159367 0.46484375 7.953125 C0.06598549 5.08470406 0.06598549 5.08470406 -0.62109375 2.671875 C-0.74613281 2.12015625 -0.87117187 1.5684375 -1 1 C-0.67 0.67 -0.34 0.34 0 0 Z " fill="#CC304B" transform="translate(230,353)"/>
<path d="M0 0 C3.28910566 4.93365849 3.66387262 9.22521766 3 15 C1.40118501 20.19407773 -0.73592172 24.49736427 -5 28 C-4.731875 27.38125 -4.46375 26.7625 -4.1875 26.125 C-3.795625 25.09375 -3.40375 24.0625 -3 23 C-2.73574219 22.30648438 -2.47148437 21.61296875 -2.19921875 20.8984375 C0.21308724 13.8787414 0.3120369 7.37331639 0 0 Z " fill="#FAD6D2" transform="translate(327,278)"/>
<path d="M0 0 C2.18614424 2.18614424 2.68256535 3.53879949 3.625 6.4375 C3.88539063 7.21996094 4.14578125 8.00242188 4.4140625 8.80859375 C5 11 5 11 5 14 C2.13275314 13.42655063 1.1385485 13.1385485 -1 11 C-0.9765625 8.3984375 -0.9765625 8.3984375 -0.625 5.375 C-0.51414062 4.37210938 -0.40328125 3.36921875 -0.2890625 2.3359375 C-0.19367188 1.56507813 -0.09828125 0.79421875 0 0 Z " fill="#DAEDF3" transform="translate(456,174)"/>
<path d="M0 0 C2.64 0.33 5.28 0.66 8 1 C9.20220203 4.53094302 8.79532349 7.12898982 8.0625 10.75 C7.86785156 11.73484375 7.67320312 12.7196875 7.47265625 13.734375 C7.31667969 14.48203125 7.16070312 15.2296875 7 16 C7.66 16 8.32 16 9 16 C8.34 17.32 7.68 18.64 7 20 C6.5978125 19.0409375 6.5978125 19.0409375 6.1875 18.0625 C5.11332248 15.66868314 5.11332248 15.66868314 2 15 C3.32 15 4.64 15 6 15 C6.33 10.71 6.66 6.42 7 2 C4.69 1.67 2.38 1.34 0 1 C0 0.67 0 0.34 0 0 Z " fill="#B1916A" transform="translate(376,175)"/>
<path d="M0 0 C7.67462965 0.93975057 15.33677447 1.9722497 23 3 C23 3.33 23 3.66 23 4 C14.73252149 4.23658921 7.07953776 3.81344335 -1 2 C-0.67 1.34 -0.34 0.68 0 0 Z " fill="#F8CDC7" transform="translate(334,333)"/>
<path d="M0 0 C2.0625 0.4375 2.0625 0.4375 4 1 C4.625 2.875 4.625 2.875 5 5 C4.34 5.66 3.68 6.32 3 7 C0.375 6.625 0.375 6.625 -2 6 C-1.125 1.125 -1.125 1.125 0 0 Z " fill="#2D996D" transform="translate(117,183)"/>
<path d="M0 0 C1.2065625 0.0309375 1.2065625 0.0309375 2.4375 0.0625 C2.81968767 1.71864657 3.15145102 3.38707024 3.4375 5.0625 C2.4375 6.0625 2.4375 6.0625 -0.125 6.125 C-1.3315625 6.0940625 -1.3315625 6.0940625 -2.5625 6.0625 C-2.94468767 4.40635343 -3.27645102 2.73792976 -3.5625 1.0625 C-2.5625 0.0625 -2.5625 0.0625 0 0 Z " fill="#2E996D" transform="translate(138.5625,164.9375)"/>
<path d="M0 0 C-0.33 1.98 -0.66 3.96 -1 6 C-2.8125 6.6875 -2.8125 6.6875 -5 7 C-6.75 5.5625 -6.75 5.5625 -8 4 C-3.375 0 -3.375 0 0 0 Z " fill="#EFE7DC" transform="translate(379,153)"/>
<path d="M0 0 C2.0625 0.4375 2.0625 0.4375 4 1 C3.67 2.65 3.34 4.3 3 6 C1.35 5.67 -0.3 5.34 -2 5 C-1.125 1.125 -1.125 1.125 0 0 Z " fill="#D5586E" transform="translate(142,346)"/>
<path d="M0 0 C1.67542976 0.28604898 3.34385343 0.61781233 5 1 C4.67 2.65 4.34 4.3 4 6 C2.68 5.67 1.36 5.34 0 5 C-0.5625 3.0625 -0.5625 3.0625 -1 1 C-0.67 0.67 -0.34 0.34 0 0 Z " fill="#D6596F" transform="translate(158,341)"/>
<path d="M0 0 C3.93846154 3.32307692 3.93846154 3.32307692 4.25 6.75 C4.1675 7.4925 4.085 8.235 4 9 C2.68 9 1.36 9 0 9 C0 6.03 0 3.06 0 0 Z " fill="#FCFAF7" transform="translate(387,155)"/>
<path d="M0 0 C2.0625 0.4375 2.0625 0.4375 4 1 C4 2.32 4 3.64 4 5 C2.68 5.33 1.36 5.66 0 6 C-0.38218767 4.34385343 -0.71395102 2.67542976 -1 1 C-0.67 0.67 -0.34 0.34 0 0 Z " fill="#D65C71" transform="translate(184,344)"/>
<path d="M0 0 C1.67542976 0.28604898 3.34385343 0.61781233 5 1 C4.67 2.32 4.34 3.64 4 5 C2.68 5 1.36 5 0 5 C-0.5625 3.0625 -0.5625 3.0625 -1 1 C-0.67 0.67 -0.34 0.34 0 0 Z " fill="#D65B71" transform="translate(174,336)"/>
<path d="M0 0 C1.32 0 2.64 0 4 0 C5.75 2 5.75 2 7 4 C6.360625 4.12375 5.72125 4.2475 5.0625 4.375 C4.0415625 4.684375 4.0415625 4.684375 3 5 C2.67 5.66 2.34 6.32 2 7 C1.34 7 0.68 7 0 7 C-0.38133299 5.0085944 -0.71325582 3.00720923 -1 1 C-0.67 0.67 -0.34 0.34 0 0 Z " fill="#BEA281" transform="translate(361,183)"/>
<path d="M0 0 C1.65 0.33 3.3 0.66 5 1 C4.67 2.32 4.34 3.64 4 5 C2.35 4.67 0.7 4.34 -1 4 C-0.67 2.68 -0.34 1.36 0 0 Z " fill="#D75E73" transform="translate(167,350)"/>
<path d="M0 0 C-1.20842856 4.43090471 -2.51668565 6.98112756 -6 10 C-6.8125 7.8125 -6.8125 7.8125 -7 5 C-2.88888889 0 -2.88888889 0 0 0 Z " fill="#91C98E" transform="translate(170,186)"/>
<path d="M0 0 C0.99 0 1.98 0 3 0 C2.54917531 1.46067199 2.08906463 2.91848032 1.625 4.375 C1.36976563 5.18710938 1.11453125 5.99921875 0.8515625 6.8359375 C0 9 0 9 -2 11 C-1.85892253 9.54119891 -1.71197585 8.08296449 -1.5625 6.625 C-1.48128906 5.81289062 -1.40007812 5.00078125 -1.31640625 4.1640625 C-1 2 -1 2 0 0 Z " fill="#EDE2D2" transform="translate(362,218)"/>
<path d="M0 0 C-2.39763185 2.39763185 -3.33273498 2.34280586 -6.625 2.625 C-7.44226563 2.69976562 -8.25953125 2.77453125 -9.1015625 2.8515625 C-9.72804688 2.90054688 -10.35453125 2.94953125 -11 3 C-7.60432574 -0.67206635 -4.86456286 -1.62152095 0 0 Z " fill="#855626" transform="translate(327,133)"/>
<path d="M0 0 C0.66 0.33 1.32 0.66 2 1 C1.07347299 2.17539996 0.13336613 3.34010577 -0.8125 4.5 C-1.33457031 5.1496875 -1.85664063 5.799375 -2.39453125 6.46875 C-4 8 -4 8 -7 8 C-5.50902342 4.2047869 -3.24299151 2.38957269 0 0 Z " fill="#87582A" transform="translate(371,155)"/>
<path d="M0 0 C0.66 0 1.32 0 2 0 C2.66 2.64 3.32 5.28 4 8 C2.68 7.34 1.36 6.68 0 6 C0 4.02 0 2.04 0 0 Z " fill="#E7EBE9" transform="translate(455,179)"/>
<path d="M0 0 C1.32 0 2.64 0 4 0 C3.67 1.65 3.34 3.3 3 5 C2.01 4.67 1.02 4.34 0 4 C0 2.68 0 1.36 0 0 Z " fill="#FDF3F2" transform="translate(307,287)"/>
<path d="M0 0 C0.33 0 0.66 0 1 0 C1.33 3.3 1.66 6.6 2 10 C1.01 9.34 0.02 8.68 -1 8 C-0.67 5.36 -0.34 2.72 0 0 Z " fill="#E2E2DE" transform="translate(42,278)"/>
<path d="M0 0 C0 0.66 0 1.32 0 2 C-2.70879335 3.35439668 -5.00933268 3.06501451 -8 3 C-6.23110084 -0.53779831 -3.70375662 0 0 0 Z " fill="#875828" transform="translate(315,213)"/>
</svg>
